<svg viewBox="0 0 500 500" xmlns="http://www.w3.org/2000/svg">
<circle cx="0" cy="250" fill="none" r="200" stroke="blue" stroke-width="2"/>
<circle cx="298.71512757118774" cy="284.8849412479361" fill="red" r="3"/>
<circle cx="106.2547011228753" cy="420.8504868887708" fill="red" r="3"/>
<circle cx="73.22390239213351" cy="27.74683660861466" fill="red" r="3"/>
<circle cx="499.34260958737156" cy="315.133765707789" fill="red" r="3"/>
<circle cx="337.7495952744228" cy="240.69757688117892" fill="red" r="3"/>
<circle cx="457.62351277740777" cy="35.85370907152675" fill="red" r="3"/>
<circle cx="265.13817411218616" cy="449.01320217626596" fill="red" r="3"/>
<circle cx="209.30553220882092" cy="369.6180745610155" fill="red" r="3"/>
<circle cx="436.94885972817576" cy="150.93470983996718" fill="red" r="3"/>
<circle cx="117.85690844807131" cy="140.50075110443086" fill="green" r="3"/>
<circle cx="470.6543121438508" cy="319.514010401673" fill="red" r="3"/>
<circle cx="348.914305513903" cy="336.0862905052217" fill="red" r="3"/>
<circle cx="38.191704355049716" cy="94.01771282496331" fill="green" r="3"/>
<circle cx="377.4952760316189" cy="409.7170392894673" fill="red" r="3"/>
<circle cx="234.53083448819206" cy="174.7075396326733" fill="red" r="3"/>
<circle cx="432.02485176096746" cy="62.21391766984942" fill="red" r="3"/>
<circle cx="255.22791964477736" cy="422.84870736713964" fill="red" r="3"/>
<circle cx="373.90519844068444" cy="400.9825370476658" fill="red" r="3"/>
<circle cx="203.1246514820855" cy="145.09888120029572" fill="red" r="3"/>
<circle cx="16.80942164709865" cy="409.84079402809124" fill="green" r="3"/>
<circle cx="73.9133319727955" cy="437.5944367382543" fill="red" r="3"/>
<circle cx="226.83408277120415" cy="73.12295643250634" fill="red" r="3"/>
<circle cx="34.913049816343474" cy="239.13849549129878" fill="green" r="3"/>
<circle cx="4.946194682137862" cy="310.6280011808456" fill="green" r="3"/>
<circle cx="127.68607039961613" cy="115.00350692472774" fill="green" r="3"/>
<circle cx="347.30070427530853" cy="290.91111326081483" fill="red" r="3"/>
<circle cx="217.79506249100217" cy="386.59181798311647" fill="red" r="3"/>
<circle cx="350.00349445637187" cy="142.36956799751914" fill="red" r="3"/>
<circle cx="323.23707473593294" cy="308.39000345250076" fill="red" r="3"/>
<circle cx="252.2803856157448" cy="447.91700642842216" fill="red" r="3"/>
<circle cx="285.9583890817121" cy="80.08791424810082" fill="red" r="3"/>
<circle cx="140.71714742342004" cy="459.0987031144463" fill="red" r="3"/>
<circle cx="290.0337911109642" cy="46.3895995092717" fill="red" r="3"/>
<circle cx="461.10639652593267" cy="268.9893693393414" fill="red" r="3"/>
<circle cx="389.006578530616" cy="59.55437775396501" fill="red" r="3"/>
<circle cx="207.59981408636003" cy="472.46125200409847" fill="red" r="3"/>
<circle cx="206.72156042102347" cy="411.8718121006899" fill="red" r="3"/>
<circle cx="492.1231737636702" cy="16.776731078840815" fill="red" r="3"/>
<circle cx="81.58829426179817" cy="429.49291605692883" fill="green" r="3"/>
<circle cx="252.51900738433315" cy="440.3232527695904" fill="red" r="3"/>
<circle cx="214.60519306180132" cy="25.973987280772498" fill="red" r="3"/>
<circle cx="272.0079491217705" cy="225.83343498708024" fill="red" r="3"/>
<circle cx="220.13865662383296" cy="370.00080633952257" fill="red" r="3"/>
<circle cx="191.975753661813" cy="49.0762926793661" fill="red" r="3"/>
<circle cx="480.3385539069919" cy="260.5784053664368" fill="red" r="3"/>
<circle cx="144.58963390253115" cy="458.95013605645795" fill="red" r="3"/>
<circle cx="158.46446751656222" cy="443.2380136486231" fill="red" r="3"/>
<circle cx="178.65876933992047" cy="425.62866952031794" fill="red" r="3"/>
<circle cx="479.9917201333191" cy="141.3870725847565" fill="red" r="3"/>
<circle cx="420.60563945148897" cy="262.199310615509" fill="red" r="3"/>
<circle cx="89.3856772221854" cy="27.938455624251464" fill="red" r="3"/>
<circle cx="386.061339844179" cy="123.56642771422379" fill="red" r="3"/>
<circle cx="258.0710934157367" cy="478.5785592773079" fill="red" r="3"/>
<circle cx="109.733210994184" cy="254.54009350894952" fill="green" r="3"/>
<circle cx="206.9534973723191" cy="104.40251489549593" fill="red" r="3"/>
<circle cx="137.76269473062766" cy="369.391580477045" fill="green" r="3"/>
<circle cx="235.14008707640716" cy="384.3113821277751" fill="red" r="3"/>
<circle cx="273.7347909417513" cy="160.51670419404942" fill="red" r="3"/>
<circle cx="191.98332701364146" cy="266.6377084062032" fill="green" r="3"/>
<circle cx="320.0826633780234" cy="400.7539143231993" fill="red" r="3"/>
<circle cx="213.80288679175646" cy="437.6222315437191" fill="red" r="3"/>
<circle cx="379.61328174640414" cy="154.39213721186545" fill="red" r="3"/>
<circle cx="329.86349664849854" cy="353.39077958087023" fill="red" r="3"/>
<circle cx="237.52569252137917" cy="419.7810042116301" fill="red" r="3"/>
<circle cx="330.6277529425658" cy="441.18093160722213" fill="red" r="3"/>
<circle cx="351.89916716091125" cy="499.03640419217544" fill="red" r="3"/>
<circle cx="471.5919686686737" cy="358.52662286438607" fill="red" r="3"/>
<circle cx="116.00771492176945" cy="407.36728118663746" fill="green" r="3"/>
<circle cx="429.23934427131826" cy="348.5560271479831" fill="red" r="3"/>
<circle cx="360.3382814392303" cy="146.21414885432586" fill="red" r="3"/>
<circle cx="305.39591011467235" cy="101.665811750739" fill="red" r="3"/>
<circle cx="64.14371054765557" cy="43.29018057391477" fill="red" r="3"/>
<circle cx="434.2654148786576" cy="413.71487544254904" fill="red" r="3"/>
<circle cx="144.46787205329485" cy="327.21482406564877" fill="green" r="3"/>
<circle cx="308.45903981993666" cy="392.5450926881728" fill="red" r="3"/>
<circle cx="151.38908367106146" cy="484.7009742386766" fill="red" r="3"/>
<circle cx="0.6489521832733215" cy="115.89378428374144" fill="green" r="3"/>
<circle cx="231.96363026729466" cy="142.06921827095113" fill="red" r="3"/>
<circle cx="231.09561324021215" cy="161.6391315234509" fill="red" r="3"/>
<circle cx="17.616369795160463" cy="369.608941401542" fill="green" r="3"/>
<circle cx="369.6168434371326" cy="359.70901213601456" fill="red" r="3"/>
<circle cx="306.8837710370681" cy="357.09219552161903" fill="red" r="3"/>
<circle cx="27.278016717104954" cy="243.62416087366583" fill="green" r="3"/>
<circle cx="414.6811752016499" cy="51.83356403322704" fill="red" r="3"/>
<circle cx="81.21715195122671" cy="245.79208152504168" fill="green" r="3"/>
<circle cx="420.42995322406495" cy="299.39992351817443" fill="red" r="3"/>
<circle cx="8.344532064408552" cy="488.90822552816115" fill="red" r="3"/>
<circle cx="358.6438485778406" cy="498.0084098736599" fill="red" r="3"/>
<circle cx="387.03446732031887" cy="373.02113955181045" fill="red" r="3"/>
<circle cx="284.60713600556085" cy="313.27759277744735" fill="red" r="3"/>
<circle cx="232.8699309981315" cy="398.7472866480315" fill="red" r="3"/>
<circle cx="392.3368606480941" cy="0.28954521093571556" fill="red" r="3"/>
<circle cx="185.62379972333613" cy="216.26750902804375" fill="green" r="3"/>
<circle cx="380.9798952451626" cy="226.853299218085" fill="red" r="3"/>
<circle cx="260.2975822657618" cy="342.9299811717879" fill="red" r="3"/>
<circle cx="270.301324335621" cy="22.279741294534922" fill="red" r="3"/>
<circle cx="0.930429830787727" cy="436.00588960895357" fill="green" r="3"/>
<circle cx="411.561907178666" cy="157.6232702838979" fill="red" r="3"/>
<circle cx="274.68508999691403" cy="346.21542223965184" fill="red" r="3"/>
<circle cx="444.8310016546888" cy="172.66489240208443" fill="red" r="3"/>
<circle cx="380.8673245679692" cy="307.36445891296836" fill="red" r="3"/>
<circle cx="493.99073764404" cy="322.34209450034064" fill="red" r="3"/>
<circle cx="341.8705302108108" cy="194.60887404540276" fill="red" r="3"/>
<circle cx="263.39061967004193" cy="134.2636653073557" fill="red" r="3"/>
<circle cx="425.4041824490322" cy="260.08853734564616" fill="red" r="3"/>
<circle cx="431.8531939532849" cy="93.80872487457029" fill="red" r="3"/>
<circle cx="465.56507783509306" cy="90.721495162325" fill="red" r="3"/>
<circle cx="291.40510440124183" cy="143.6654167499172" fill="red" r="3"/>
<circle cx="52.34215976251034" cy="6.929282279064643" fill="red" r="3"/>
<circle cx="428.98328847787536" cy="390.0135874193899" fill="red" r="3"/>
<circle cx="417.2248285265869" cy="87.77719668149145" fill="red" r="3"/>
<circle cx="381.54135846796186" cy="200.27941868556226" fill="red" r="3"/>
<circle cx="367.56798409532473" cy="303.74149796659987" fill="red" r="3"/>
<circle cx="317.19136634771144" cy="272.7530928132505" fill="red" r="3"/>
<circle cx="355.55701669719264" cy="42.64343637312508" fill="red" r="3"/>
<circle cx="203.74996029951492" cy="427.2561124745732" fill="red" r="3"/>
<circle cx="330.2238279408117" cy="133.49027503272086" fill="red" r="3"/>
<circle cx="476.287266200318" cy="304.2364302900628" fill="red" r="3"/>
<circle cx="168.90162928178324" cy="115.17170855202977" fill="red" r="3"/>
<circle cx="364.9654829889883" cy="415.98841099013913" fill="red" r="3"/>
<circle cx="393.0230235061598" cy="51.45364082649174" fill="red" r="3"/>
<circle cx="276.5357237170243" cy="418.9290359038721" fill="red" r="3"/>
<circle cx="266.9717807291479" cy="273.70584496403154" fill="red" r="3"/>
<circle cx="84.3440371388542" cy="13.492755141722549" fill="red" r="3"/>
<circle cx="231.91408972630094" cy="107.37377083922253" fill="red" r="3"/>
<circle cx="477.4094719805836" cy="166.6014848889215" fill="red" r="3"/>
<circle cx="155.91160925851625" cy="39.62026633377281" fill="red" r="3"/>
<circle cx="41.52740057505345" cy="206.45038763556926" fill="green" r="3"/>
<circle cx="197.41844891466448" cy="440.24646645107333" fill="red" r="3"/>
<circle cx="226.72467938859958" cy="330.671136760645" fill="red" r="3"/>
<circle cx="225.20753047472934" cy="497.01554779864466" fill="red" r="3"/>
<circle cx="137.85176495660193" cy="486.07220725463117" fill="red" r="3"/>
<circle cx="427.62327020640555" cy="85.00286442067397" fill="red" r="3"/>
<circle cx="225.3545597633107" cy="177.2813498184183" fill="red" r="3"/>
<circle cx="482.7170354611275" cy="182.55031184838649" fill="red" r="3"/>
<circle cx="40.003880095049524" cy="302.0416801567856" fill="green" r="3"/>
<circle cx="150.8955660175502" cy="357.35389075318454" fill="green" r="3"/>
<circle cx="288.5633096921342" cy="144.84718541138346" fill="red" r="3"/>
<circle cx="12.822652945131077" cy="154.50096181591215" fill="green" r="3"/>
<circle cx="117.41889134014829" cy="58.98626900136207" fill="red" r="3"/>
<circle cx="385.5911851155069" cy="231.40641645162756" fill="red" r="3"/>
<circle cx="273.9777899955951" cy="450.9027132842349" fill="red" r="3"/>
<circle cx="247.90113245971486" cy="391.50162944688526" fill="red" r="3"/>
<circle cx="92.71499098840454" cy="264.02804134162045" fill="green" r="3"/>
<circle cx="242.55054854087382" cy="244.73494760272303" fill="red" r="3"/>
<circle cx="75.61713679512762" cy="335.5433686155233" fill="green" r="3"/>
<circle cx="488.3192480037012" cy="4.725130138809598" fill="red" r="3"/>
<circle cx="316.48276388473323" cy="265.10063213077234" fill="red" r="3"/>
<circle cx="384.1682041364717" cy="268.90539426306054" fill="red" r="3"/>
<circle cx="140.8484457851607" cy="112.61571290886398" fill="green" r="3"/>
<circle cx="109.11266692947588" cy="4.798593161100318" fill="red" r="3"/>
<circle cx="45.10373652642042" cy="295.6957647820759" fill="green" r="3"/>
<circle cx="33.80788879099817" cy="246.17284975333482" fill="green" r="3"/>
<circle cx="405.555971380372" cy="4.1760025193511305" fill="red" r="3"/>
<circle cx="335.40007934455014" cy="361.37881260659395" fill="red" r="3"/>
<circle cx="330.22064262874426" cy="196.01105301243044" fill="red" r="3"/>
<circle cx="55.655028551400825" cy="167.65453842690783" fill="green" r="3"/>
<circle cx="52.150076727227834" cy="76.33166309985674" fill="green" r="3"/>
<circle cx="423.35601367637065" cy="228.88689770779175" fill="red" r="3"/>
<circle cx="63.22136924984047" cy="492.82988344812617" fill="red" r="3"/>
<circle cx="469.45653835356285" cy="86.65957281115757" fill="red" r="3"/>
<circle cx="190.56012884965628" cy="347.8168637813913" fill="red" r="3"/>
<circle cx="211.05593794111581" cy="445.6296069000711" fill="red" r="3"/>
<circle cx="418.7684786703046" cy="35.59424147332691" fill="red" r="3"/>
<circle cx="37.062669930464374" cy="104.62159103298909" fill="green" r="3"/>
<circle cx="33.59644883378066" cy="133.39995867472024" fill="green" r="3"/>
<circle cx="309.51014462154745" cy="304.88844870196635" fill="red" r="3"/>
<circle cx="285.3960976013707" cy="172.5722118233845" fill="red" r="3"/>
<circle cx="265.7402519397429" cy="218.20752739827125" fill="red" r="3"/>
<circle cx="454.79278463476066" cy="286.76451539800337" fill="red" r="3"/>
<circle cx="470.7736513890117" cy="159.92522293283244" fill="red" r="3"/>
<circle cx="149.656063244237" cy="188.9215466739908" fill="green" r="3"/>
<circle cx="25.17618426810631" cy="494.78915841330576" fill="red" r="3"/>
<circle cx="172.28273327189385" cy="198.64429214656136" fill="green" r="3"/>
<circle cx="57.497421764780576" cy="256.9552157707908" fill="green" r="3"/>
<circle cx="347.67426250704045" cy="327.38058744448836" fill="red" r="3"/>
<circle cx="401.2862812411435" cy="137.49698987815353" fill="red" r="3"/>
<circle cx="192.3812228034553" cy="268.8434516546852" fill="green" r="3"/>
<circle cx="481.26431971114624" cy="371.4419318907228" fill="red" r="3"/>
<circle cx="419.09858006695566" cy="66.80126779438723" fill="red" r="3"/>
<circle cx="465.88394210145844" cy="347.4969935327786" fill="red" r="3"/>
<circle cx="295.80186381143267" cy="416.3878041901173" fill="red" r="3"/>
<circle cx="84.1493634320183" cy="260.9722583864137" fill="green" r="3"/>
<circle cx="16.47786588141376" cy="467.8099053494181" fill="red" r="3"/>
<circle cx="126.37234515094434" cy="150.39211230189656" fill="green" r="3"/>
<circle cx="266.19961736292726" cy="186.1461305643704" fill="red" r="3"/>
<circle cx="465.44213421498847" cy="444.8690716254876" fill="red" r="3"/>
<circle cx="167.23391608591024" cy="472.62198644907846" fill="red" r="3"/>
<circle cx="213.4865873938078" cy="140.846832390808" fill="red" r="3"/>
<circle cx="85.48471527124104" cy="407.21356019190875" fill="green" r="3"/>
<circle cx="60.00492802689085" cy="248.513795054284" fill="green" r="3"/>
<circle cx="160.78205857776078" cy="282.2813642443235" fill="green" r="3"/>
<circle cx="159.78446783762226" cy="355.305267544966" fill="green" r="3"/>
<circle cx="388.8790947571422" cy="20.651585707587188" fill="red" r="3"/>
<circle cx="490.55664048229175" cy="424.5784420893007" fill="red" r="3"/>
<circle cx="243.60466930177344" cy="110.94310620168149" fill="red" r="3"/>
<circle cx="300.487452564916" cy="323.3722582300764" fill="red" r="3"/>
<circle cx="466.9001039019348" cy="348.4350440612331" fill="red" r="3"/>
<circle cx="189.2189969812748" cy="85.37629939103832" fill="red" r="3"/>
<circle cx="403.4341432642956" cy="419.28028402338646" fill="red" r="3"/>
<circle cx="298.25349320237046" cy="31.28531382456535" fill="red" r="3"/>
<circle cx="60.00464685509234" cy="273.9326726171692" fill="green" r="3"/>
<circle cx="352.43907572973717" cy="18.607713541562102" fill="red" r="3"/>
<circle cx="371.5237724320316" cy="479.56145029447015" fill="red" r="3"/>
<circle cx="383.58419362721247" cy="334.6766194397783" fill="red" r="3"/>
<circle cx="292.8870900980751" cy="288.9285848501641" fill="red" r="3"/>
<circle cx="37.57174935508268" cy="140.02414565194468" fill="green" r="3"/>
<circle cx="372.3118224689622" cy="229.1268742788554" fill="red" r="3"/>
<circle cx="332.2199512148914" cy="341.7669690200837" fill="red" r="3"/>
<circle cx="290.3531926378104" cy="81.57010449725657" fill="red" r="3"/>
<circle cx="329.4400453667116" cy="175.08210853382815" fill="red" r="3"/>
<circle cx="385.8071631005927" cy="20.565882638059367" fill="red" r="3"/>
<circle cx="179.6597901001912" cy="289.24895610442564" fill="green" r="3"/>
<circle cx="130.8894467025146" cy="413.0657548324822" fill="red" r="3"/>
<circle cx="45.153165760387644" cy="319.1323482807085" fill="green" r="3"/>
<circle cx="323.85802656078494" cy="472.0423122717943" fill="red" r="3"/>
<circle cx="89.56884225392838" cy="412.8225804167803" fill="green" r="3"/>
<circle cx="246.51630394277453" cy="368.5305913289196" fill="red" r="3"/>
<circle cx="474.7591124275667" cy="9.708568106214457" fill="red" r="3"/>
<circle cx="322.7540158148445" cy="157.62348839693456" fill="red" r="3"/>
<circle cx="212.37451319408" cy="205.81248204039252" fill="red" r="3"/>
<circle cx="482.9452400342048" cy="77.0895339198179" fill="red" r="3"/>
<circle cx="21.476561178743086" cy="357.99887462482013" fill="green" r="3"/>
<circle cx="461.1472553556991" cy="171.30436448623124" fill="red" r="3"/>
<circle cx="388.52177726290915" cy="457.9269568833949" fill="red" r="3"/>
<circle cx="411.6341795391217" cy="7.3867795099802365" fill="red" r="3"/>
<circle cx="30.793487699657845" cy="442.9344810815849" fill="green" r="3"/>
<circle cx="292.16151218075544" cy="349.4077788228967" fill="red" r="3"/>
<circle cx="138.1340748746043" cy="162.11784715412062" fill="green" r="3"/>
<circle cx="162.55070686675325" cy="120.93767940945702" fill="red" r="3"/>
<circle cx="26.602131019956683" cy="271.8431760207367" fill="green" r="3"/>
<circle cx="159.56614925741223" cy="61.666764805755406" fill="red" r="3"/>
<circle cx="97.94650646053118" cy="168.32796142023858" fill="green" r="3"/>
<circle cx="427.33846852712486" cy="367.768713439058" fill="red" r="3"/>
<circle cx="71.1746121567204" cy="235.1402628571289" fill="green" r="3"/>
<circle cx="460.83633250203826" cy="111.22836958731055" fill="red" r="3"/>
<circle cx="252.49734345103641" cy="324.8473222809734" fill="red" r="3"/>
<circle cx="16.741819860459866" cy="353.4319850399937" fill="green" r="3"/>
<circle cx="384.87691760970307" cy="148.9960346815781" fill="red" r="3"/>
<circle cx="244.41120907133723" cy="481.01868715687755" fill="red" r="3"/>
<circle cx="43.68045116274178" cy="318.85618673042876" fill="green" r="3"/>
<circle cx="259.3643590809658" cy="50.15193573860434" fill="red" r="3"/>
<circle cx="415.7095287393061" cy="137.70017943708248" fill="red" r="3"/>
<circle cx="371.62756083927724" cy="488.1488647020884" fill="red" r="3"/>
<circle cx="195.6719593467097" cy="395.0262034728435" fill="red" r="3"/>
<circle cx="280.16434022571286" cy="189.263482316027" fill="red" r="3"/>
<circle cx="19.244955643516253" cy="300.06042426578836" fill="green" r="3"/>
<circle cx="232.59994101598397" cy="174.21609073168702" fill="red" r="3"/>
<circle cx="139.51982787677935" cy="306.39100609267587" fill="green" r="3"/>
<circle cx="112.28579400252039" cy="112.63950821507187" fill="green" r="3"/>
<circle cx="478.5035636247138" cy="238.41925185654728" fill="red" r="3"/>
<circle cx="340.72662784943304" cy="169.7236645672489" fill="red" r="3"/>
<circle cx="342.83860604240454" cy="268.4810961910231" fill="red" r="3"/>
<circle cx="170.3489761028432" cy="146.74570105673172" fill="green" r="3"/>
<circle cx="312.1015056879157" cy="55.24428082369671" fill="red" r="3"/>
<circle cx="98.20280049722243" cy="272.11496990567457" fill="green" r="3"/>
<circle cx="468.95414675315305" cy="364.3617673127417" fill="red" r="3"/>
<circle cx="358.6269771896929" cy="79.81870853476593" fill="red" r="3"/>
<circle cx="441.3267269381804" cy="465.0374155860598" fill="red" r="3"/>
<circle cx="205.74350144494852" cy="357.64034871150113" fill="red" r="3"/>
<circle cx="390.2938299795563" cy="92.17648034632633" fill="red" r="3"/>
<circle cx="46.207537407703015" cy="280.8119256388249" fill="green" r="3"/>
<circle cx="301.8603176174452" cy="219.48856797397602" fill="red" r="3"/>
<circle cx="288.39817273295796" cy="81.22727893546934" fill="red" r="3"/>
<circle cx="32.71764931131305" cy="107.67411499785797" fill="green" r="3"/>
<circle cx="491.81323258714735" cy="411.09708750010986" fill="red" r="3"/>
<circle cx="295.55164215197436" cy="284.20504072494094" fill="red" r="3"/>
<circle cx="347.87673247728895" cy="84.95150134929676" fill="red" r="3"/>
<circle cx="319.79933853352554" cy="158.9297287528107" fill="red" r="3"/>
<circle cx="264.31766151034645" cy="193.2905887300638" fill="red" r="3"/>
<circle cx="422.3149787923791" cy="117.87738435199039" fill="red" r="3"/>
<circle cx="165.79739197746062" cy="374.7393014788727" fill="red" r="3"/>
<circle cx="106.73442890243903" cy="143.5498167144943" fill="green" r="3"/>
<circle cx="14.956209483576124" cy="113.50500810920886" fill="green" r="3"/>
<circle cx="403.07729023805246" cy="498.9236880136314" fill="red" r="3"/>
<circle cx="240.80560741823638" cy="76.6722869693024" fill="red" r="3"/>
<circle cx="1.6837905482968156" cy="423.28014774559307" fill="green" r="3"/>
<circle cx="215.08315762277235" cy="329.2784199451875" fill="red" r="3"/>
<circle cx="158.10357238072064" cy="284.08383979821554" fill="green" r="3"/>
<circle cx="367.8761785370512" cy="217.22648314037266" fill="red" r="3"/>
<circle cx="443.49312404467344" cy="383.2508956536791" fill="red" r="3"/>
<circle cx="368.7926793101013" cy="161.94830347192928" fill="red" r="3"/>
<circle cx="196.89952405182092" cy="195.82491168350185" fill="red" r="3"/>
<circle cx="104.0235457608886" cy="336.20259584395967" fill="green" r="3"/>
<circle cx="108.09903159172498" cy="19.79761310489026" fill="red" r="3"/>
<circle cx="70.13951871074855" cy="495.168921695348" fill="red" r="3"/>
<circle cx="343.3612940171018" cy="233.74133930275158" fill="red" r="3"/>
<circle cx="151.7542030463252" cy="317.75074227799536" fill="green" r="3"/>
<circle cx="286.6066726250165" cy="385.4099665666226" fill="red" r="3"/>
<circle cx="7.102380443494762" cy="38.272255145708876" fill="red" r="3"/>
<circle cx="379.67506544189587" cy="241.15968680465966" fill="red" r="3"/>
<circle cx="194.0419850801784" cy="455.51968676626154" fill="red" r="3"/>
<circle cx="432.6840462540563" cy="135.3002479095971" fill="red" r="3"/>
<circle cx="254.90051948224473" cy="83.46650469503626" fill="red" r="3"/>
<circle cx="476.74486455606166" cy="60.20039887703711" fill="red" r="3"/>
<circle cx="345.732351280636" cy="119.15327936279743" fill="red" r="3"/>
<circle cx="240.07548285964236" cy="279.55986257457363" fill="red" r="3"/>
<circle cx="11.697755605530105" cy="419.22975781332684" fill="green" r="3"/>
<circle cx="162.5457400953842" cy="496.82465670028256" fill="red" r="3"/>
<circle cx="192.7688360065159" cy="215.95393729927218" fill="green" r="3"/>
<circle cx="104.86641437845992" cy="39.76101142749534" fill="red" r="3"/>
<circle cx="198.41885142511023" cy="143.5148466810993" fill="red" r="3"/>
<circle cx="408.3612604121198" cy="300.0878024664125" fill="red" r="3"/>
<circle cx="183.6920883632454" cy="297.59552787753967" fill="green" r="3"/>
<circle cx="45.583014555840585" cy="66.68296971043587" fill="green" r="3"/>
<circle cx="226.97027005092824" cy="159.2594951377852" fill="red" r="3"/>
<circle cx="23.345164413185355" cy="55.35179766320021" fill="green" r="3"/>
<circle cx="87.25761188462214" cy="192.2815456828342" fill="green" r="3"/>
<circle cx="404.4295469642" cy="132.922258755959" fill="red" r="3"/>
<circle cx="419.83485371592434" cy="181.6412919583528" fill="red" r="3"/>
<circle cx="336.3379291444775" cy="355.8805178601834" fill="red" r="3"/>
<circle cx="130.97541440270226" cy="164.46460275920575" fill="green" r="3"/>
<circle cx="254.40213890292458" cy="61.69337333863302" fill="red" r="3"/>
<circle cx="460.2607470380642" cy="198.77108592429477" fill="red" r="3"/>
<circle cx="100.29147777507998" cy="271.11515737611086" fill="green" r="3"/>
<circle cx="81.81470072459142" cy="473.7320960068329" fill="red" r="3"/>
<circle cx="265.937609892775" cy="1.2081898841774799" fill="red" r="3"/>
<circle cx="334.2907403038957" cy="212.57887397438586" fill="red" r="3"/>
<circle cx="303.1345906590484" cy="414.22711442268985" fill="red" r="3"/>
<circle cx="441.1581992897911" cy="338.8552591994356" fill="red" r="3"/>
<circle cx="157.98326075562866" cy="436.44340787041466" fill="red" r="3"/>
<circle cx="111.41779944461874" cy="143.97895766417525" fill="green" r="3"/>
<circle cx="105.22934634501826" cy="146.65911210947638" fill="green" r="3"/>
<circle cx="306.35071017327607" cy="262.62079203664285" fill="red" r="3"/>
<circle cx="311.38738014731376" cy="322.3080119629852" fill="red" r="3"/>
<circle cx="128.59902637920732" cy="496.9089953418248" fill="red" r="3"/>
<circle cx="28.189190840342665" cy="124.3308169220814" fill="green" r="3"/>
<circle cx="89.52643135436158" cy="491.7879399956966" fill="red" r="3"/>
<circle cx="109.56674388875145" cy="91.48286072575675" fill="green" r="3"/>
<circle cx="246.7103929776519" cy="102.98532717592859" fill="red" r="3"/>
<circle cx="294.4688811307968" cy="36.975958546523586" fill="red" r="3"/>
<circle cx="75.49504962148924" cy="41.584607509759905" fill="red" r="3"/>
<circle cx="219.17470797691956" cy="391.0731739152745" fill="red" r="3"/>
<circle cx="402.4006332291945" cy="39.74281874690823" fill="red" r="3"/>
<circle cx="446.37717749567764" cy="458.46504973746005" fill="red" r="3"/>
<circle cx="382.0611360978572" cy="72.16227796829301" fill="red" r="3"/>
<circle cx="259.11810712006127" cy="468.1552825814568" fill="red" r="3"/>
<circle cx="409.9206070292863" cy="125.58690018953703" fill="red" r="3"/>
<circle cx="442.5138049171339" cy="150.88806640436152" fill="red" r="3"/>
<circle cx="382.35067593720794" cy="344.00675533199905" fill="red" r="3"/>
<circle cx="257.16385790579926" cy="178.6564818536595" fill="red" r="3"/>
<circle cx="401.78821313743885" cy="139.488891386527" fill="red" r="3"/>
<circle cx="336.4991364887909" cy="23.046295071502026" fill="red" r="3"/>
<circle cx="52.58932745854595" cy="289.20887689141256" fill="green" r="3"/>
<circle cx="144.90477413958294" cy="454.81874862470215" fill="red" r="3"/>
<circle cx="20.203746278788074" cy="111.04773332408126" fill="green" r="3"/>
<circle cx="145.21922099706822" cy="86.77034415871445" fill="red" r="3"/>
<circle cx="173.5936153968603" cy="226.43099347198887" fill="green" r="3"/>
<circle cx="275.67598161536995" cy="204.23454652818057" fill="red" r="3"/>
<circle cx="413.78638830335757" cy="167.4284367545396" fill="red" r="3"/>
<circle cx="93.30496512814248" cy="153.90655970532146" fill="green" r="3"/>
<circle cx="192.9435370775188" cy="445.3135057220734" fill="red" r="3"/>
<circle cx="393.75739039155485" cy="12.942535883257115" fill="red" r="3"/>
<circle cx="213.7091057391795" cy="129.0930713837837" fill="red" r="3"/>
<circle cx="498.01832172004214" cy="408.0950160519222" fill="red" r="3"/>
<circle cx="277.3632524633015" cy="350.15379594310986" fill="red" r="3"/>
<circle cx="102.72124702948928" cy="160.91052391803112" fill="green" r="3"/>
<circle cx="46.584083380892274" cy="11.82689317675623" fill="red" r="3"/>
<circle cx="493.48726971063184" cy="358.282497312646" fill="red" r="3"/>
<circle cx="264.92545761104765" cy="56.05766562730542" fill="red" r="3"/>
<circle cx="470.4405326398758" cy="28.04960096914378" fill="red" r="3"/>
<circle cx="313.89161516443204" cy="55.957430446111694" fill="red" r="3"/>
<circle cx="450.34056504067354" cy="464.62397405878784" fill="red" r="3"/>
<circle cx="128.46956471002804" cy="238.6426594128112" fill="green" r="3"/>
<circle cx="451.6393302948569" cy="384.6586138775535" fill="red" r="3"/>
<circle cx="494.55551199722123" cy="157.46187309655005" fill="red" r="3"/>
<circle cx="467.1602456282083" cy="71.0916864056519" fill="red" r="3"/>
<circle cx="15.073423345992712" cy="374.19650615883603" fill="green" r="3"/>
<circle cx="247.61831796831262" cy="438.24328608451276" fill="red" r="3"/>
<circle cx="420.0000384888883" cy="171.98994413896966" fill="red" r="3"/>
<circle cx="276.04654849758754" cy="439.6011044710375" fill="red" r="3"/>
<circle cx="139.15581279000457" cy="25.304659715631455" fill="red" r="3"/>
<circle cx="135.66040105560032" cy="105.63264451766777" fill="green" r="3"/>
<circle cx="294.4619550726982" cy="2.2116151976571135" fill="red" r="3"/>
<circle cx="436.6818596878413" cy="302.2878680726578" fill="red" r="3"/>
<circle cx="57.35519661927003" cy="192.45891840186374" fill="green" r="3"/>
<circle cx="423.5190511550464" cy="428.2976555954928" fill="red" r="3"/>
<circle cx="459.827829609165" cy="412.49838081273816" fill="red" r="3"/>
<circle cx="1.353632100948188" cy="472.3747171346951" fill="red" r="3"/>
<circle cx="53.14797610764312" cy="143.00063693774592" fill="green" r="3"/>
<circle cx="468.02081401919446" cy="403.4343576829068" fill="red" r="3"/>
<circle cx="266.2665219344172" cy="192.31589744728964" fill="red" r="3"/>
<circle cx="447.3211200961028" cy="142.81650603849897" fill="red" r="3"/>
<circle cx="157.71095128828497" cy="72.54732049411996" fill="red" r="3"/>
<circle cx="203.40642766271415" cy="15.715099569596717" fill="red" r="3"/>
<circle cx="121.90129993394963" cy="198.12393576483316" fill="green" r="3"/>
<circle cx="374.3847443288336" cy="426.3310943971085" fill="red" r="3"/>
<circle cx="61.63051598451365" cy="354.7877139318066" fill="green" r="3"/>
<circle cx="184.86640160920746" cy="477.84404159037985" fill="red" r="3"/>
<circle cx="460.91033089644895" cy="114.04342749006116" fill="red" r="3"/>
<circle cx="276.8722440036934" cy="230.89137961800216" fill="red" r="3"/>
<circle cx="210.22443441354582" cy="56.64477877514741" fill="red" r="3"/>
<circle cx="211.4750973604062" cy="196.84502695957522" fill="red" r="3"/>
<circle cx="393.468325210667" cy="472.3884359008128" fill="red" r="3"/>
<circle cx="393.86344175098975" cy="226.67489370929943" fill="red" r="3"/>
<circle cx="384.7319361467567" cy="168.20654778783933" fill="red" r="3"/>
<circle cx="2.159310644574975" cy="360.3747037003307" fill="green" r="3"/>
<circle cx="9.695089588328544" cy="302.71915257782695" fill="green" r="3"/>
<circle cx="310.96793165822885" cy="370.1010502964078" fill="red" r="3"/>
<circle cx="262.636962539803" cy="305.6271525540803" fill="red" r="3"/>
<circle cx="216.56932846053516" cy="393.5031529655136" fill="red" r="3"/>
<circle cx="388.82281962207287" cy="323.2447330619041" fill="red" r="3"/>
<circle cx="237.22770685041544" cy="7.37170192735548" fill="red" r="3"/>
<circle cx="258.8913036149904" cy="388.610348106058" fill="red" r="3"/>
<circle cx="190.5015031750003" cy="456.461632374187" fill="red" r="3"/>
<circle cx="228.868999401794" cy="213.29336175472608" fill="red" r="3"/>
<circle cx="160.59652971665477" cy="32.796436943008494" fill="red" r="3"/>
<circle cx="22.59594235675189" cy="116.77581925375405" fill="green" r="3"/>
<circle cx="49.20623243629508" cy="257.5278630205797" fill="green" r="3"/>
<circle cx="89.76712273213919" cy="438.86702165607613" fill="red" r="3"/>
<circle cx="123.34564393277583" cy="120.28974515222072" fill="green" r="3"/>
<circle cx="337.29033758765786" cy="234.27533723347088" fill="red" r="3"/>
<circle cx="346.4104585738694" cy="68.25668649986062" fill="red" r="3"/>
<circle cx="195.84006592345276" cy="209.3655129339505" fill="red" r="3"/>
<circle cx="98.5494285662898" cy="169.1446562300313" fill="green" r="3"/>
<circle cx="431.60189048017605" cy="383.4285728893789" fill="red" r="3"/>
<circle cx="79.54539121057215" cy="481.64440916675653" fill="red" r="3"/>
<circle cx="303.3577784349791" cy="332.150203415832" fill="red" r="3"/>
<circle cx="220.59834155545272" cy="201.7330720800456" fill="red" r="3"/>
<circle cx="245.38957243093935" cy="20.832566241711042" fill="red" r="3"/>
<circle cx="373.4749871629598" cy="49.34184032899126" fill="red" r="3"/>
<circle cx="489.10215256787205" cy="127.37417962930644" fill="red" r="3"/>
<circle cx="303.4771112886726" cy="157.6063367545614" fill="red" r="3"/>
<circle cx="218.89549240399492" cy="258.65359212984714" fill="red" r="3"/>
<circle cx="373.3979043827071" cy="131.01505224157188" fill="red" r="3"/>
<circle cx="254.10638093805355" cy="9.556739818566975" fill="red" r="3"/>
<circle cx="360.6527705680207" cy="284.2835910505744" fill="red" r="3"/>
<circle cx="98.8605834912826" cy="487.3915722768426" fill="red" r="3"/>
<circle cx="418.831191813056" cy="380.12826878333794" fill="red" r="3"/>
<circle cx="60.927414166339084" cy="279.11847643255345" fill="green" r="3"/>
<circle cx="322.4682682092106" cy="349.151988803494" fill="red" r="3"/>
<circle cx="89.47638596782849" cy="281.4360262458669" fill="green" r="3"/>
<circle cx="289.6152047062832" cy="204.3575231479418" fill="red" r="3"/>
<circle cx="197.29706974493138" cy="267.0441260476171" fill="green" r="3"/>
<circle cx="52.54941881820042" cy="196.4273191687516" fill="green" r="3"/>
<circle cx="17.776950827472884" cy="241.28597836770354" fill="green" r="3"/>
<circle cx="228.68735034806315" cy="477.5137240322891" fill="red" r="3"/>
<circle cx="294.5398831859621" cy="265.8815577913683" fill="red" r="3"/>
<circle cx="187.47786842249008" cy="13.54138354255097" fill="red" r="3"/>
<circle cx="72.62089033739429" cy="307.5879350534044" fill="green" r="3"/>
<circle cx="471.42838932588626" cy="456.2881565138158" fill="red" r="3"/>
<circle cx="388.67596859114724" cy="85.39060482412465" fill="red" r="3"/>
<circle cx="261.6515174314225" cy="425.1805695482231" fill="red" r="3"/>
<circle cx="337.02138572980783" cy="318.77343411561475" fill="red" r="3"/>
<circle cx="322.9346378030099" cy="371.0361032950171" fill="red" r="3"/>
<circle cx="2.5732509307689893" cy="101.23055439310083" fill="green" r="3"/>
<circle cx="44.99092546292628" cy="294.62025589216387" fill="green" r="3"/>
<circle cx="144.47726660746366" cy="442.48868848485165" fill="red" r="3"/>
<circle cx="260.3537834949968" cy="332.6220089807325" fill="red" r="3"/>
<circle cx="382.3887840832578" cy="56.071742953402236" fill="red" r="3"/>
<circle cx="31.31931839188896" cy="278.21436717750066" fill="green" r="3"/>
<circle cx="299.61380257815637" cy="473.3714188407844" fill="red" r="3"/>
<circle cx="266.45284068083015" cy="383.1854332660652" fill="red" r="3"/>
<circle cx="49.574037355634715" cy="29.164791264375886" fill="red" r="3"/>
<circle cx="5.224931982528048" cy="65.05975537785015" fill="green" r="3"/>
<circle cx="317.35276237298666" cy="420.9544640231555" fill="red" r="3"/>
<circle cx="363.47261477324076" cy="225.9152215789136" fill="red" r="3"/>
<circle cx="204.6588998340631" cy="2.090751094452892" fill="red" r="3"/>
<circle cx="97.09965949991842" cy="286.50788459805136" fill="green" r="3"/>
<circle cx="116.77403552271085" cy="97.30546115761886" fill="green" r="3"/>
<circle cx="276.4514257954615" cy="125.30714929072442" fill="red" r="3"/>
<circle cx="288.57440972020896" cy="334.30745595164996" fill="red" r="3"/>
<circle cx="239.2184670632504" cy="359.33804042999446" fill="red" r="3"/>
<circle cx="176.57251213905815" cy="178.87740521178213" fill="green" r="3"/>
<circle cx="155.7485116378107" cy="117.1596348890074" fill="red" r="3"/>
<circle cx="90.80219434620199" cy="194.02379724257827" fill="green" r="3"/>
<circle cx="213.74136022832585" cy="81.53359084843893" fill="red" r="3"/>
<circle cx="406.8937980167537" cy="34.39416930133621" fill="red" r="3"/>
<circle cx="109.38457149226491" cy="372.3065220487703" fill="green" r="3"/>
<circle cx="19.823915059106195" cy="272.47400445612794" fill="green" r="3"/>
<circle cx="448.42318776534364" cy="148.75965362773695" fill="red" r="3"/>
<circle cx="176.9669871161294" cy="295.4607184775803" fill="green" r="3"/>
<circle cx="455.1886514334351" cy="230.49524452598507" fill="red" r="3"/>
<circle cx="444.8961679973341" cy="422.9628018398822" fill="red" r="3"/>
<circle cx="243.08632937613777" cy="54.21496056685161" fill="red" r="3"/>
<circle cx="96.6791881986644" cy="413.83441222131535" fill="green" r="3"/>
<circle cx="238.8399717525442" cy="96.80768845565603" fill="red" r="3"/>
<circle cx="309.95824708613156" cy="422.34244419852547" fill="red" r="3"/>
<circle cx="453.1470256169132" cy="131.24847445015632" fill="red" r="3"/>
<circle cx="104.36106894387711" cy="404.77499858271926" fill="green" r="3"/>
<circle cx="141.82460625745844" cy="20.889822481339642" fill="red" r="3"/>
<circle cx="453.4106647162298" cy="225.59096974931452" fill="red" r="3"/>
<circle cx="296.5071092903536" cy="361.81703038820666" fill="red" r="3"/>
<circle cx="13.025678928016097" cy="170.35916427810176" fill="green" r="3"/>
<circle cx="197.66156251774606" cy="226.7999691609676" fill="green" r="3"/>
<circle cx="399.90783293816366" cy="71.88242827179872" fill="red" r="3"/>
<circle cx="400.5027323452617" cy="113.18115918588347" fill="red" r="3"/>
<circle cx="192.70146321007002" cy="427.6168813421679" fill="red" r="3"/>
<circle cx="422.27090577527525" cy="407.52679941357906" fill="red" r="3"/>
<circle cx="397.1616835112548" cy="477.93775430856834" fill="red" r="3"/>
<circle cx="309.1461974493834" cy="152.75382906792382" fill="red" r="3"/>
<circle cx="442.0445043486606" cy="197.87526133625715" fill="red" r="3"/>
<circle cx="213.29856016648657" cy="41.32073664408687" fill="red" r="3"/>
<circle cx="40.89007493453579" cy="278.87314789836165" fill="green" r="3"/>
<circle cx="330.95381035589327" cy="431.89646956685556" fill="red" r="3"/>
<circle cx="465.43902113091804" cy="457.47593935454813" fill="red" r="3"/>
<circle cx="435.37666617578685" cy="307.1926568965943" fill="red" r="3"/>
<circle cx="161.72300327585313" cy="222.97607408270576" fill="green" r="3"/>
<circle cx="394.11169801751" cy="383.3111530340426" fill="red" r="3"/>
<circle cx="309.23366965365926" cy="278.35654498785385" fill="red" r="3"/>
<circle cx="422.7949551820884" cy="33.040153067682496" fill="red" r="3"/>
<circle cx="32.52174244312623" cy="329.5983778094834" fill="green" r="3"/>
<circle cx="362.585338344071" cy="304.8095762529409" fill="red" r="3"/>
<circle cx="24.822940517981845" cy="305.61363104042465" fill="green" r="3"/>
<circle cx="106.68827768635005" cy="335.4217612068762" fill="green" r="3"/>
<circle cx="162.70336713124192" cy="470.48244889449853" fill="red" r="3"/>
<circle cx="219.395066837978" cy="201.32057838325207" fill="red" r="3"/>
<circle cx="478.36096374064385" cy="368.2405410802344" fill="red" r="3"/>
<circle cx="429.3605800241921" cy="255.674209762828" fill="red" r="3"/>
<circle cx="58.62078313829834" cy="375.021644948684" fill="green" r="3"/>
<circle cx="18.410673037420725" cy="41.84527015451801" fill="red" r="3"/>
<circle cx="311.02551919971893" cy="26.957584980700116" fill="red" r="3"/>
<circle cx="68.55465926500871" cy="202.2326300354808" fill="green" r="3"/>
<circle cx="115.64003974793604" cy="328.1073885465348" fill="green" r="3"/>
<circle cx="129.2260366331758" cy="139.29044440494334" fill="green" r="3"/>
<circle cx="288.69419364691447" cy="172.14213119503623" fill="red" r="3"/>
<circle cx="89.69944569795153" cy="234.07454510688126" fill="green" r="3"/>
<circle cx="45.186607626670494" cy="204.04144178050115" fill="green" r="3"/>
<circle cx="436.008033850329" cy="111.37609516354499" fill="red" r="3"/>
<circle cx="20.784686193226825" cy="360.082957598722" fill="green" r="3"/>
<circle cx="91.69615236357977" cy="48.919931762400736" fill="red" r="3"/>
<circle cx="218.10061466026147" cy="360.8633770390787" fill="red" r="3"/>
<circle cx="367.0602450387216" cy="59.481442546373565" fill="red" r="3"/>
<circle cx="30.35587633304016" cy="333.78170857881616" fill="green" r="3"/>
<circle cx="76.35115494888468" cy="325.5276355039709" fill="green" r="3"/>
<circle cx="52.6997774488105" cy="349.88363549919075" fill="green" r="3"/>
<circle cx="487.5028874067447" cy="159.04467901099576" fill="red" r="3"/>
<circle cx="57.26013038055945" cy="345.1980210176165" fill="green" r="3"/>
<circle cx="375.26382427941417" cy="413.6624075739361" fill="red" r="3"/>
<circle cx="264.7997190851758" cy="384.63162514926506" fill="red" r="3"/>
<circle cx="300.1846430761145" cy="174.31908204728046" fill="red" r="3"/>
<circle cx="160.59850004596936" cy="329.5809332999677" fill="green" r="3"/>
<circle cx="219.56337284509337" cy="302.2377905535247" fill="red" r="3"/>
<circle cx="449.10615748515113" cy="12.731240111433232" fill="red" r="3"/>
<circle cx="296.92182430887976" cy="20.161633304161768" fill="red" r="3"/>
<circle cx="463.200589492858" cy="10.386416283059255" fill="red" r="3"/>
<circle cx="292.26929913271636" cy="275.4146350465087" fill="red" r="3"/>
<circle cx="485.23680813470094" cy="260.99515497983253" fill="red" r="3"/>
<circle cx="187.55749954101967" cy="389.8525465992799" fill="red" r="3"/>
<circle cx="94.82116991161507" cy="248.4657602261519" fill="green" r="3"/>
<circle cx="56.5552940691615" cy="176.95580195288434" fill="green" r="3"/>
<circle cx="156.99752716703634" cy="408.39683269173673" fill="red" r="3"/>
<circle cx="376.514306055691" cy="405.5313205786004" fill="red" r="3"/>
<circle cx="449.087685928486" cy="376.59551222733575" fill="red" r="3"/>
<circle cx="238.90915200151315" cy="136.00443206727545" fill="red" r="3"/>
<circle cx="355.24176805172544" cy="411.55542504585395" fill="red" r="3"/>
<circle cx="267.54744408919913" cy="69.11867925774908" fill="red" r="3"/>
<circle cx="152.59638972068916" cy="32.89813699172207" fill="red" r="3"/>
<circle cx="64.80493271908729" cy="241.13235231251855" fill="green" r="3"/>
<circle cx="448.8089996346696" cy="153.47814331053615" fill="red" r="3"/>
<circle cx="458.2959456791653" cy="344.9835566287681" fill="red" r="3"/>
<circle cx="169.57834897372186" cy="216.2117606722786" fill="green" r="3"/>
<circle cx="261.8337228162136" cy="470.4278274496149" fill="red" r="3"/>
<circle cx="264.50256888366204" cy="179.67463895197503" fill="red" r="3"/>
<circle cx="490.6063753558888" cy="36.6995360785275" fill="red" r="3"/>
<circle cx="3.2007892562629934" cy="44.81468615337026" fill="red" r="3"/>
<circle cx="167.46662873647037" cy="147.6117800592565" fill="green" r="3"/>
<circle cx="13.407103060680495" cy="229.49220847065615" fill="green" r="3"/>
<circle cx="23.247425184695587" cy="66.19098416455361" fill="green" r="3"/>
<circle cx="285.0342129405587" cy="112.30562089798903" fill="red" r="3"/>
<circle cx="99.74029341524174" cy="139.80236663885017" fill="green" r="3"/>
<circle cx="238.04092276463058" cy="18.607705913082143" fill="red" r="3"/>
<circle cx="199.34046441704695" cy="296.67144087054874" fill="red" r="3"/>
<circle cx="494.5685815118533" cy="465.99179196158445" fill="red" r="3"/>
<circle cx="86.88348720066854" cy="485.29638198009707" fill="red" r="3"/>
<circle cx="493.5666493927354" cy="198.54668342341336" fill="red" r="3"/>
<circle cx="177.52799400991307" cy="488.1893694081665" fill="red" r="3"/>
<circle cx="203.56214939517653" cy="244.7992435285549" fill="red" r="3"/>
<circle cx="429.032518327168" cy="445.47104407770473" fill="red" r="3"/>
<circle cx="376.6793909290946" cy="23.26045755711426" fill="red" r="3"/>
<circle cx="206.636566656287" cy="143.5953495999375" fill="red" r="3"/>
<circle cx="201.9116231620877" cy="141.46382964146946" fill="red" r="3"/>
<circle cx="241.06879491021144" cy="69.862439218369" fill="red" r="3"/>
<circle cx="76.8918898335388" cy="402.7331584585714" fill="green" r="3"/>
<circle cx="318.1449576507551" cy="480.8016371030516" fill="red" r="3"/>
<circle cx="191.1578968818723" cy="301.04933013728123" fill="green" r="3"/>
<circle cx="159.97646799467495" cy="399.42129047746977" fill="red" r="3"/>
<circle cx="204.9202478345838" cy="451.25949864588887" fill="red" r="3"/>
<circle cx="34.25692566783446" cy="341.30785913894545" fill="green" r="3"/>
<circle cx="7.002491067409468" cy="57.910281001979826" fill="green" r="3"/>
<circle cx="34.53794590639626" cy="163.66214931747695" fill="green" r="3"/>
<circle cx="152.53839850592658" cy="259.095525239824" fill="green" r="3"/>
<circle cx="185.86135344515213" cy="88.7547698892678" fill="red" r="3"/>
<circle cx="360.9033187683641" cy="147.854828605432" fill="red" r="3"/>
<circle cx="459.04324829111766" cy="197.70514092127925" fill="red" r="3"/>
<circle cx="6.743198667381935" cy="496.7820366658603" fill="red" r="3"/>
<circle cx="15.559539279397464" cy="145.7580479790516" fill="green" r="3"/>
<circle cx="240.5661976239712" cy="438.9728617101017" fill="red" r="3"/>
<circle cx="299.01438211276053" cy="425.0840113049142" fill="red" r="3"/>
<circle cx="36.63217252305951" cy="35.80103243054323" fill="red" r="3"/>
<circle cx="256.38851000786195" cy="324.99764999472023" fill="red" r="3"/>
<circle cx="460.2508907419499" cy="170.68161898686012" fill="red" r="3"/>
<circle cx="449.9089944964717" cy="492.37582566163906" fill="red" r="3"/>
<circle cx="101.17695475799695" cy="3.964581388564926" fill="red" r="3"/>
<circle cx="402.21525753854957" cy="465.0032264751646" fill="red" r="3"/>
<circle cx="333.8896856596844" cy="470.85557417215983" fill="red" r="3"/>
<circle cx="237.3174417330372" cy="346.69447553952125" fill="red" r="3"/>
<circle cx="158.35580229762817" cy="369.6688321038728" fill="green" r="3"/>
<circle cx="482.18154698046965" cy="58.93245201337007" fill="red" r="3"/>
<circle cx="467.1916813684173" cy="141.55315122083348" fill="red" r="3"/>
<circle cx="222.05422970740113" cy="342.66156980143586" fill="red" r="3"/>
<circle cx="113.82669515140888" cy="496.87250077757784" fill="red" r="3"/>
<circle cx="81.43048003515487" cy="86.20764147072981" fill="green" r="3"/>
<circle cx="287.7722856891613" cy="284.65296050846496" fill="red" r="3"/>
<circle cx="220.29363684909436" cy="393.8852894990925" fill="red" r="3"/>
<circle cx="377.3379895454257" cy="328.89131370721464" fill="red" r="3"/>
<circle cx="205.38608000760422" cy="2.529779394022547" fill="red" r="3"/>
<circle cx="36.19374540423393" cy="251.0932412219305" fill="green" r="3"/>
<circle cx="221.38273923952505" cy="315.954598882991" fill="red" r="3"/>
<circle cx="19.733849345322966" cy="297.2377224602827" fill="green" r="3"/>
<circle cx="302.683531665863" cy="139.3432993654903" fill="red" r="3"/>
<circle cx="306.562049510079" cy="85.0181808702434" fill="red" r="3"/>
<circle cx="74.19157646805832" cy="198.34055721355176" fill="green" r="3"/>
<circle cx="43.355476033225436" cy="329.2760438469777" fill="green" r="3"/>
<circle cx="24.62808246414772" cy="308.51929841613253" fill="green" r="3"/>
<circle cx="482.7382861216013" cy="425.4413431563992" fill="red" r="3"/>
<circle cx="268.4735161751329" cy="320.30848522086114" fill="red" r="3"/>
<circle cx="364.01303473018817" cy="80.36428809442532" fill="red" r="3"/>
<circle cx="81.87606142998096" cy="354.17144748256777" fill="green" r="3"/>
<circle cx="280.70286349718583" cy="292.898372055706" fill="red" r="3"/>
<circle cx="240.64222139117192" cy="287.2925810530766" fill="red" r="3"/>
<circle cx="70.39026361123403" cy="249.56384242889047" fill="green" r="3"/>
<circle cx="47.91667907178044" cy="63.82809513204747" fill="green" r="3"/>
<circle cx="316.48563460880683" cy="396.2245199112546" fill="red" r="3"/>
<circle cx="79.67276182897523" cy="156.14628614093644" fill="green" r="3"/>
<circle cx="76.89682192201055" cy="356.993721882052" fill="green" r="3"/>
<circle cx="86.71550744909231" cy="499.5662883469356" fill="red" r="3"/>
<circle cx="64.64169247510155" cy="358.34731390517226" fill="green" r="3"/>
<circle cx="350.8606870365105" cy="189.4772921437226" fill="red" r="3"/>
<circle cx="480.63441251671514" cy="19.519026076033622" fill="red" r="3"/>
<circle cx="62.55805029191343" cy="437.4697424855828" fill="green" r="3"/>
<circle cx="453.2932891740138" cy="170.79907079733474" fill="red" r="3"/>
<circle cx="190.16116703585334" cy="12.389435050695788" fill="red" r="3"/>
<circle cx="371.47318793892435" cy="138.6182319752445" fill="red" r="3"/>
<circle cx="278.2153711262305" cy="406.2788919588281" fill="red" r="3"/>
<circle cx="336.21240556638827" cy="182.06902313321754" fill="red" r="3"/>
<circle cx="56.47816638358162" cy="275.98017321161444" fill="green" r="3"/>
<circle cx="440.60422343168017" cy="485.9709690064342" fill="red" r="3"/>
<circle cx="238.8190872179286" cy="468.59301768487325" fill="red" r="3"/>
<circle cx="75.67312972319597" cy="397.95184486590347" fill="green" r="3"/>
<circle cx="434.1745278489879" cy="139.23997288195613" fill="red" r="3"/>
<circle cx="101.35907418606152" cy="76.31335540281938" fill="red" r="3"/>
<circle cx="115.43392748551953" cy="218.30884521446475" fill="green" r="3"/>
<circle cx="387.1276848063612" cy="59.570998801116176" fill="red" r="3"/>
<circle cx="396.34833448463354" cy="128.9434399306573" fill="red" r="3"/>
<circle cx="168.26669523605347" cy="128.51435044466533" fill="red" r="3"/>
<circle cx="103.90409724095674" cy="244.48805657931166" fill="green" r="3"/>
<circle cx="381.0636764576666" cy="213.21689336388832" fill="red" r="3"/>
<circle cx="8.817775586901446" cy="268.22240832541684" fill="green" r="3"/>
<circle cx="114.06978611794862" cy="397.73269545576903" fill="green" r="3"/>
<circle cx="454.81461307287043" cy="228.08236984779413" fill="red" r="3"/>
<circle cx="39.053308337096205" cy="78.33194204946294" fill="green" r="3"/>
<circle cx="475.98977705285495" cy="483.18021572940626" fill="red" r="3"/>
<circle cx="414.37953783849736" cy="333.89452369900425" fill="red" r="3"/>
<circle cx="270.45493251324785" cy="313.06721714275096" fill="red" r="3"/>
<circle cx="44.57034896730173" cy="175.4104519008554" fill="green" r="3"/>
<circle cx="128.9140533239444" cy="55.56802345285895" fill="red" r="3"/>
<circle cx="199.2907506892045" cy="353.10142146589106" fill="red" r="3"/>
<circle cx="162.80430298840636" cy="161.30831015860318" fill="green" r="3"/>
<circle cx="411.3109529089011" cy="399.2290367763311" fill="red" r="3"/>
<circle cx="14.989323614628129" cy="81.6389186915525" fill="green" r="3"/>
<circle cx="81.86730117813347" cy="487.9418531712985" fill="red" r="3"/>
<circle cx="377.19742962356213" cy="34.571912686520605" fill="red" r="3"/>
<circle cx="455.5264643216922" cy="132.736541233392" fill="red" r="3"/>
<circle cx="216.31984155667567" cy="29.91133624044496" fill="red" r="3"/>
<circle cx="154.51926574719457" cy="485.9659260285111" fill="red" r="3"/>
<circle cx="182.52703194136447" cy="466.3998751015673" fill="red" r="3"/>
<circle cx="331.2397400328236" cy="392.55822390577896" fill="red" r="3"/>
<circle cx="418.0365777989381" cy="445.00055307943796" fill="red" r="3"/>
<circle cx="118.62265021610965" cy="470.8959901812072" fill="red" r="3"/>
<circle cx="493.22293054452325" cy="410.19320080607434" fill="red" r="3"/>
<circle cx="378.62657599268863" cy="272.99440055615946" fill="red" r="3"/>
<circle cx="363.8120425554385" cy="162.4390932988046" fill="red" r="3"/>
<circle cx="233.47687105578046" cy="180.56107977243823" fill="red" r="3"/>
<circle cx="370.54106058357945" cy="85.6566925232636" fill="red" r="3"/>
<circle cx="266.8778420768871" cy="107.72830173349692" fill="red" r="3"/>
<circle cx="370.9473689189013" cy="244.55334258658294" fill="red" r="3"/>
<circle cx="162.70427498389088" cy="176.92305205123998" fill="green" r="3"/>
<circle cx="126.25344149100728" cy="38.64429257315517" fill="red" r="3"/>
<circle cx="404.420482788609" cy="12.936124891819059" fill="red" r="3"/>
<circle cx="142.1866060516737" cy="403.69645573372367" fill="red" r="3"/>
<circle cx="410.72138530334956" cy="498.25780354621173" fill="red" r="3"/>
<circle cx="98.31602696494714" cy="121.91824635991446" fill="green" r="3"/>
<circle cx="84.3884451188537" cy="23.77713290891937" fill="red" r="3"/>
<circle cx="493.20912914320724" cy="39.86502072048127" fill="red" r="3"/>
<circle cx="24.464857834531458" cy="57.780240346370206" fill="green" r="3"/>
<circle cx="270.704578315684" cy="56.886866794277694" fill="red" r="3"/>
<circle cx="177.05630546738053" cy="296.1206331840383" fill="green" r="3"/>
<circle cx="70.99750677746532" cy="370.40909169073643" fill="green" r="3"/>
<circle cx="485.30423606854544" cy="357.5214029717214" fill="red" r="3"/>
<circle cx="160.86596855209905" cy="13.660580503828903" fill="red" r="3"/>
<circle cx="487.27440511896725" cy="84.56697148584738" fill="red" r="3"/>
<circle cx="281.68230250757114" cy="374.7035672434462" fill="red" r="3"/>
<circle cx="475.1792665418965" cy="428.85958512643015" fill="red" r="3"/>
<circle cx="398.8334969264304" cy="196.8292447956596" fill="red" r="3"/>
<circle cx="103.86372729782825" cy="212.04752584395786" fill="green" r="3"/>
<circle cx="84.56132204164592" cy="266.50682594363667" fill="green" r="3"/>
<circle cx="204.19293088647345" cy="367.4233728175577" fill="red" r="3"/>
<circle cx="141.232824378851" cy="96.87948306820073" fill="red" r="3"/>
<circle cx="33.50759237574575" cy="233.070096210574" fill="green" r="3"/>
<circle cx="231.48082098504935" cy="123.8888325983393" fill="red" r="3"/>
<circle cx="129.71627774524987" cy="342.65621586069545" fill="green" r="3"/>
<circle cx="373.9562162107971" cy="124.68306269685995" fill="red" r="3"/>
<circle cx="360.4123064680915" cy="496.41214153085025" fill="red" r="3"/>
<circle cx="132.56751688549454" cy="136.3286125043535" fill="green" r="3"/>
<circle cx="144.87088246103923" cy="53.29100216103945" fill="red" r="3"/>
<circle cx="481.3213066133275" cy="118.84699567450055" fill="red" r="3"/>
<circle cx="128.38945147901174" cy="27.449862823695334" fill="red" r="3"/>
<circle cx="475.33546679435034" cy="294.0179193607195" fill="red" r="3"/>
<circle cx="130.2154066189555" cy="204.16994253491055" fill="green" r="3"/>
<circle cx="408.7408135101341" cy="237.97105688497783" fill="red" r="3"/>
<circle cx="300.1634947912458" cy="112.97463818652867" fill="red" r="3"/>
<circle cx="386.75051483253117" cy="169.1719299247965" fill="red" r="3"/>
<circle cx="96.34667038876657" cy="120.89286335345709" fill="green" r="3"/>
<circle cx="42.510494727643135" cy="168.5304635462406" fill="green" r="3"/>
<circle cx="175.22842914610786" cy="331.57999069637066" fill="green" r="3"/>
<circle cx="213.1890015753834" cy="295.90762465451076" fill="red" r="3"/>
<circle cx="78.26293349026783" cy="241.38351621787174" fill="green" r="3"/>
<circle cx="310.18966633899146" cy="60.68095487051219" fill="red" r="3"/>
<circle cx="494.157424763496" cy="38.992198948181745" fill="red" r="3"/>
<circle cx="225.20175874677489" cy="4.416222084975053" fill="red" r="3"/>
<circle cx="94.26690657314754" cy="30.730664477183428" fill="red" r="3"/>
<circle cx="170.38079645511044" cy="34.852998326452955" fill="red" r="3"/>
<circle cx="158.45236858807502" cy="287.64093035925794" fill="green" r="3"/>
<circle cx="36.1647129657633" cy="402.46264595166355" fill="green" r="3"/>
<circle cx="312.09963027780526" cy="66.04166255164836" fill="red" r="3"/>
<circle cx="346.5821714158442" cy="455.50151418347497" fill="red" r="3"/>
<circle cx="287.40652604816813" cy="296.7616328016936" fill="red" r="3"/>
<circle cx="242.83812264568078" cy="314.4789421306967" fill="red" r="3"/>
<circle cx="8.665534734174864" cy="272.0923191595093" fill="green" r="3"/>
<circle cx="305.8228135178848" cy="28.34721457749668" fill="red" r="3"/>
<circle cx="63.57700850480198" cy="135.32967627083295" fill="green" r="3"/>
<circle cx="130.2441681386816" cy="407.8770332864173" fill="red" r="3"/>
<circle cx="283.80624350006275" cy="405.6383482108756" fill="red" r="3"/>
<circle cx="278.66059365599943" cy="355.7472660647822" fill="red" r="3"/>
<circle cx="141.14986060586347" cy="347.90153990986425" fill="green" r="3"/>
<circle cx="290.18779149512625" cy="156.042673432947" fill="red" r="3"/>
<circle cx="122.53651811465419" cy="404.81656756481897" fill="green" r="3"/>
<circle cx="23.396352152196048" cy="151.01204240782775" fill="green" r="3"/>
<circle cx="123.42356630864562" cy="126.79313350939917" fill="green" r="3"/>
<circle cx="482.5854924599472" cy="265.5137882656628" fill="red" r="3"/>
<circle cx="269.4926053174574" cy="312.000495917147" fill="red" r="3"/>
<circle cx="195.61544315756768" cy="380.66905685454554" fill="red" r="3"/>
<circle cx="188.34403699390683" cy="470.91291670826087" fill="red" r="3"/>
<circle cx="104.43517612896038" cy="36.27209255356579" fill="red" r="3"/>
<circle cx="165.76281267230812" cy="424.64613761482315" fill="red" r="3"/>
<circle cx="222.48128596663668" cy="52.29182747233931" fill="red" r="3"/>
<circle cx="485.5599508771441" cy="21.478245807673773" fill="red" r="3"/>
<circle cx="143.55051596674588" cy="18.399767607010347" fill="red" r="3"/>
<circle cx="378.99300100011965" cy="267.8627391265655" fill="red" r="3"/>
<circle cx="235.53056411899757" cy="442.49833303137206" fill="red" r="3"/>
<circle cx="368.320084966461" cy="312.46973995460144" fill="red" r="3"/>
<circle cx="92.27584776853128" cy="55.893252772764036" fill="red" r="3"/>
<circle cx="362.6982784320888" cy="92.56151601068065" fill="red" r="3"/>
<circle cx="6.000228722568781" cy="172.84893875983136" fill="green" r="3"/>
<circle cx="436.6532692267079" cy="182.5182166132046" fill="red" r="3"/>
<circle cx="42.411924441065686" cy="71.33592500595088" fill="green" r="3"/>
<circle cx="222.77793070122092" cy="321.05857884137384" fill="red" r="3"/>
<circle cx="63.104762012254916" cy="425.71837227175166" fill="green" r="3"/>
<circle cx="177.6677132248196" cy="434.9785146839197" fill="red" r="3"/>
<circle cx="99.99338979915731" cy="478.490343791665" fill="red" r="3"/>
<circle cx="64.26355982106492" cy="84.1593846466644" fill="green" r="3"/>
<circle cx="25.210977468662303" cy="288.0149377717731" fill="green" r="3"/>
<circle cx="12.538213272910939" cy="379.39071778283517" fill="green" r="3"/>
<circle cx="115.95232713443951" cy="374.5241287472351" fill="green" r="3"/>
<circle cx="451.4702326829142" cy="470.66525712945094" fill="red" r="3"/>
<circle cx="391.8614091079876" cy="481.38611338659865" fill="red" r="3"/>
<circle cx="335.027600981687" cy="19.0066778709902" fill="red" r="3"/>
<circle cx="404.59728732596454" cy="212.24443221808113" fill="red" r="3"/>
<circle cx="485.05619435325855" cy="457.0264943443353" fill="red" r="3"/>
<circle cx="110.78240977629075" cy="314.334477360811" fill="green" r="3"/>
<circle cx="39.636385212358356" cy="290.04456845053437" fill="green" r="3"/>
<circle cx="457.92695415548525" cy="334.5622543128629" fill="red" r="3"/>
<circle cx="142.8045115614161" cy="459.19755109501915" fill="red" r="3"/>
<circle cx="236.8236915529231" cy="11.453046887692777" fill="red" r="3"/>
<circle cx="187.88274720659373" cy="239.3481775222524" fill="green" r="3"/>
<circle cx="50.16007054943884" cy="327.4566671977724" fill="green" r="3"/>
<circle cx="498.6219059680549" cy="265.7885963405739" fill="red" r="3"/>
<circle cx="448.6584154571488" cy="203.77631132807687" fill="red" r="3"/>
<circle cx="40.33430124552274" cy="336.00997300060584" fill="green" r="3"/>
<circle cx="133.30905157006916" cy="54.49804835001583" fill="red" r="3"/>
<circle cx="30.367177621194347" cy="7.28162501699592" fill="red" r="3"/>
<circle cx="328.9474396240543" cy="258.18429196182007" fill="red" r="3"/>
<circle cx="167.0151569984786" cy="239.18439897171444" fill="green" r="3"/>
<circle cx="136.73210990616096" cy="301.998967750418" fill="green" r="3"/>
<circle cx="233.20002554583002" cy="318.41681873899506" fill="red" r="3"/>
<circle cx="126.03269668144848" cy="202.61315279461638" fill="green" r="3"/>
<circle cx="180.5761393461083" cy="311.3658027783593" fill="green" r="3"/>
<circle cx="299.4187520118394" cy="496.862074515271" fill="red" r="3"/>
<circle cx="131.43725317038437" cy="420.103919488514" fill="red" r="3"/>
<circle cx="46.05685472195143" cy="335.0760045249469" fill="green" r="3"/>
<circle cx="476.8596651373711" cy="175.48549537737327" fill="red" r="3"/>
<circle cx="450.55797222355943" cy="27.037342708779338" fill="red" r="3"/>
<circle cx="109.7373501272412" cy="51.927768284948506" fill="red" r="3"/>
<circle cx="22.420312765649157" cy="157.30111109086567" fill="green" r="3"/>
<circle cx="328.75381744948737" cy="33.88748178988588" fill="red" r="3"/>
<circle cx="45.46281965363664" cy="143.35216909089945" fill="green" r="3"/>
<circle cx="43.3032490631572" cy="412.19502112535486" fill="green" r="3"/>
<circle cx="23.444874999193573" cy="415.20649318930924" fill="green" r="3"/>
<circle cx="391.8527451395863" cy="377.30867655202434" fill="red" r="3"/>
<circle cx="458.05502717813596" cy="219.18985517897278" fill="red" r="3"/>
<circle cx="147.88490317091166" cy="470.83883594052224" fill="red" r="3"/>
<circle cx="156.7124070357159" cy="204.145638105445" fill="green" r="3"/>
<circle cx="62.52592558738103" cy="0.904510215856136" fill="red" r="3"/>
<circle cx="439.60727063499047" cy="197.150211341272" fill="red" r="3"/>
<circle cx="444.70162272360056" cy="461.9647814803025" fill="red" r="3"/>
<circle cx="286.0261945293063" cy="76.24596292310738" fill="red" r="3"/>
<circle cx="375.2298050682263" cy="270.030312858591" fill="red" r="3"/>
<circle cx="297.859148780878" cy="259.8388706280223" fill="red" r="3"/>
<circle cx="487.1097440911748" cy="54.45636991446502" fill="red" r="3"/>
<circle cx="101.85814529493311" cy="213.24799293599978" fill="green" r="3"/>
<circle cx="447.5747311647831" cy="471.86049499015536" fill="red" r="3"/>
<circle cx="463.3603687463749" cy="279.9291173224269" fill="red" r="3"/>
<circle cx="176.9621891600354" cy="214.7065094086115" fill="green" r="3"/>
<circle cx="499.7771880251438" cy="430.1802611680735" fill="red" r="3"/>
<circle cx="67.00716603135605" cy="344.3533100992574" fill="green" r="3"/>
<circle cx="97.68614857499483" cy="493.7001702828657" fill="red" r="3"/>
<circle cx="250.096377894692" cy="378.35441529578725" fill="red" r="3"/>
<circle cx="310.8378641055987" cy="286.6918613734059" fill="red" r="3"/>
<circle cx="168.93946399154885" cy="279.31528426840686" fill="green" r="3"/>
<circle cx="219.29692028174878" cy="355.25369265037165" fill="red" r="3"/>
<circle cx="312.4251660391955" cy="155.3335510720693" fill="red" r="3"/>
<circle cx="9.052577770377493" cy="280.2301609522993" fill="green" r="3"/>
<circle cx="229.70955679940892" cy="195.91068379558158" fill="red" r="3"/>
<circle cx="213.16094317722573" cy="59.65427310144035" fill="red" r="3"/>
<circle cx="130.39783727238188" cy="413.41690886726275" fill="red" r="3"/>
<circle cx="326.2159874284553" cy="362.1809719065328" fill="red" r="3"/>
<circle cx="267.46776518401964" cy="267.85371771277926" fill="red" r="3"/>
<circle cx="165.16132833228374" cy="313.1416651218232" fill="green" r="3"/>
<circle cx="23.26958335463825" cy="24.9970390691261" fill="red" r="3"/>
<circle cx="498.7764283794428" cy="1.4751073143218778" fill="red" r="3"/>
<circle cx="207.4266422827879" cy="248.528253728681" fill="red" r="3"/>
<circle cx="26.83751669946977" cy="384.3297298324699" fill="green" r="3"/>
<circle cx="283.3666167609443" cy="307.61291037708037" fill="red" r="3"/>
<circle cx="255.97676181091916" cy="367.20499735052465" fill="red" r="3"/>
<circle cx="325.08307703557165" cy="290.7645804957954" fill="red" r="3"/>
<circle cx="202.24992330708818" cy="106.19935808157113" fill="red" r="3"/>
<circle cx="460.97782876475054" cy="496.16810206855735" fill="red" r="3"/>
<circle cx="81.02199351029107" cy="384.13099608964404" fill="green" r="3"/>
<circle cx="371.89332089647974" cy="414.4460672963549" fill="red" r="3"/>
<circle cx="337.44031189824705" cy="254.47429648771154" fill="red" r="3"/>
<circle cx="314.7308885978671" cy="482.932521491409" fill="red" r="3"/>
<circle cx="300.95848905418785" cy="54.80553965433711" fill="red" r="3"/>
<circle cx="49.44975235690953" cy="389.2369742979798" fill="green" r="3"/>
<circle cx="27.25547107862348" cy="132.79440326448557" fill="green" r="3"/>
<circle cx="252.51072565063942" cy="252.56548681103692" fill="red" r="3"/>
<circle cx="244.1949946764402" cy="497.0111268012717" fill="red" r="3"/>
<circle cx="447.5799021644712" cy="417.3118511173644" fill="red" r="3"/>
<circle cx="305.42659273108336" cy="334.2021771260651" fill="red" r="3"/>
<circle cx="262.4817803430077" cy="124.1374737185004" fill="red" r="3"/>
<circle cx="304.7679759713574" cy="308.08908630138797" fill="red" r="3"/>
<circle cx="213.12329933575495" cy="231.02115829847673" fill="red" r="3"/>
<circle cx="51.62917730696094" cy="273.29684226575495" fill="green" r="3"/>
<circle cx="380.5687239946057" cy="58.23806712546998" fill="red" r="3"/>
<circle cx="51.82993873782683" cy="261.57870981556215" fill="green" r="3"/>
<circle cx="376.974660074298" cy="489.20227682000774" fill="red" r="3"/>
<circle cx="242.64626439501842" cy="101.08688870250295" fill="red" r="3"/>
<circle cx="422.2820693435143" cy="144.2643252938244" fill="red" r="3"/>
<circle cx="421.2994119715888" cy="97.9648646609639" fill="red" r="3"/>
<circle cx="320.3511601050983" cy="320.4262809572654" fill="red" r="3"/>
<circle cx="69.67979768120205" cy="324.80125966593715" fill="green" r="3"/>
<circle cx="320.94574761088154" cy="241.9910212728515" fill="red" r="3"/>
<circle cx="109.22853648753363" cy="256.2935745165446" fill="green" r="3"/>
<circle cx="33.39757574362213" cy="400.94524613233494" fill="green" r="3"/>
<circle cx="224.78992821326221" cy="316.5586532003844" fill="red" r="3"/>
<circle cx="217.12935994478903" cy="37.847831965863506" fill="red" r="3"/>
<circle cx="250.4036422250086" cy="410.9820703249881" fill="red" r="3"/>
<circle cx="0.7788406453361765" cy="235.76998833425694" fill="green" r="3"/>
<circle cx="226.88944394709648" cy="1.636313768469067" fill="red" r="3"/>
<circle cx="57.62366269770937" cy="229.54901906896268" fill="green" r="3"/>
<circle cx="81.14892984572832" cy="4.436267100549119" fill="red" r="3"/>
<circle cx="394.61642623041655" cy="135.44067280475073" fill="red" r="3"/>
<circle cx="436.7781362177285" cy="25.302192541358686" fill="red" r="3"/>
<circle cx="469.05905757196285" cy="22.03090132404784" fill="red" r="3"/>
<circle cx="300.92181747415975" cy="252.53286812152226" fill="red" r="3"/>
<circle cx="268.9930526653414" cy="114.84340446212163" fill="red" r="3"/>
<circle cx="332.22422563740537" cy="149.30444631352083" fill="red" r="3"/>
<circle cx="297.3690317496795" cy="432.1147713020496" fill="red" r="3"/>
<circle cx="441.1041172031933" cy="278.5061192750081" fill="red" r="3"/>
<circle cx="375.9164659149865" cy="92.95594319186998" fill="red" r="3"/>
<circle cx="342.81439554420587" cy="170.2288241426058" fill="red" r="3"/>
<circle cx="414.3972485444204" cy="52.16434999989873" fill="red" r="3"/>
<circle cx="326.21135154898735" cy="83.75310819506356" fill="red" r="3"/>
<circle cx="389.39973720275367" cy="251.35789026874826" fill="red" r="3"/>
<circle cx="34.66281722046761" cy="119.47941339691783" fill="green" r="3"/>
<circle cx="358.371163670508" cy="40.10262919799147" fill="red" r="3"/>
<circle cx="377.2342044779281" cy="384.07520335704356" fill="red" r="3"/>
<circle cx="158.51886962655664" cy="135.90357400880595" fill="green" r="3"/>
<circle cx="354.06000521016034" cy="466.22839810145956" fill="red" r="3"/>
<circle cx="379.82051113280323" cy="391.6980135167587" fill="red" r="3"/>
<circle cx="233.54832453586477" cy="293.50011712868115" fill="red" r="3"/>
<circle cx="239.49318174875438" cy="340.04169921429536" fill="red" r="3"/>
<circle cx="208.8287384611675" cy="238.27451278941064" fill="red" r="3"/>
<circle cx="475.74808118614754" cy="448.05291371697706" fill="red" r="3"/>
<circle cx="185.57094233510244" cy="466.6658767206191" fill="red" r="3"/>
<circle cx="419.4733083236405" cy="2.4532154417503675" fill="red" r="3"/>
<circle cx="95.87997413545182" cy="479.17424758110315" fill="red" r="3"/>
<circle cx="283.5607655824805" cy="1.198178060242028" fill="red" r="3"/>
<circle cx="278.8374097308501" cy="357.6987960826496" fill="red" r="3"/>
<circle cx="215.20728286207319" cy="141.7864695049679" fill="red" r="3"/>
<circle cx="71.53914881206293" cy="434.8009329523278" fill="green" r="3"/>
<circle cx="93.15627090221948" cy="88.75706386309858" fill="green" r="3"/>
<circle cx="162.50347320544316" cy="150.83714418922804" fill="green" r="3"/>
<circle cx="263.59363834698473" cy="32.19963638330204" fill="red" r="3"/>
<circle cx="107.2259366799181" cy="135.76452016374455" fill="green" r="3"/>
<circle cx="172.51962275807657" cy="449.520279745951" fill="red" r="3"/>
<circle cx="296.06363654204864" cy="375.8376636595468" fill="red" r="3"/>
<circle cx="423.7132099177998" cy="209.72020452308132" fill="red" r="3"/>
<circle cx="339.20626997914815" cy="14.19599112514969" fill="red" r="3"/>
<circle cx="478.3506227246682" cy="214.08137399886266" fill="red" r="3"/>
<circle cx="132.9938828855031" cy="193.74554443670417" fill="green" r="3"/>
<circle cx="139.25528241258692" cy="31.58077017610051" fill="red" r="3"/>
<circle cx="367.36512573840747" cy="213.859031171239" fill="red" r="3"/>
<circle cx="334.5403615532062" cy="263.1523120989296" fill="red" r="3"/>
<circle cx="485.61169465798747" cy="5.454810206828032" fill="red" r="3"/>
<circle cx="59.41093105316765" cy="119.25335136868279" fill="green" r="3"/>
<circle cx="224.51599041462384" cy="406.3503457386748" fill="red" r="3"/>
<circle cx="295.10821410771024" cy="239.55797826677855" fill="red" r="3"/>
<circle cx="124.45508582938383" cy="412.2718688217164" fill="red" r="3"/>
<circle cx="363.80072250042815" cy="328.58647710164706" fill="red" r="3"/>
<circle cx="198.48807312009413" cy="495.76776710443085" fill="red" r="3"/>
<circle cx="318.2021554685964" cy="105.7073565439364" fill="red" r="3"/>
<circle cx="347.5782926964896" cy="109.02872504207275" fill="red" r="3"/>
<circle cx="376.8807649413057" cy="78.23041088520147" fill="red" r="3"/>
<circle cx="404.2423315988516" cy="71.40487524008078" fill="red" r="3"/>
<circle cx="468.4596807539163" cy="122.79434105304435" fill="red" r="3"/>
<circle cx="41.56727444262388" cy="323.27623735297226" fill="green" r="3"/>
<circle cx="214.13669544510788" cy="1.6047343833670573" fill="red" r="3"/>
<circle cx="31.353798156274266" cy="44.554870768216304" fill="red" r="3"/>
<circle cx="79.46845827593597" cy="327.73311163693415" fill="green" r="3"/>
<circle cx="79.46821919959015" cy="96.99915660970817" fill="green" r="3"/>
<circle cx="152.13505144397925" cy="351.40054376607884" fill="green" r="3"/>
<circle cx="412.48814541239494" cy="98.24497349242137" fill="red" r="3"/>
<circle cx="383.48538108242025" cy="270.64884362498896" fill="red" r="3"/>
<circle cx="362.3566634830163" cy="120.59580917187742" fill="red" r="3"/>
<circle cx="433.376491249033" cy="318.2354229391466" fill="red" r="3"/>
<circle cx="167.44778007438103" cy="340.8545445062858" fill="green" r="3"/>
<circle cx="270.4838031757397" cy="314.9972233523282" fill="red" r="3"/>
<circle cx="235.14811038041566" cy="393.8198269580474" fill="red" r="3"/>
<circle cx="50.34755646230794" cy="323.974189259464" fill="green" r="3"/>
<circle cx="325.90312512517335" cy="202.58032532701458" fill="red" r="3"/>
<circle cx="58.52563720310234" cy="421.5551324395318" fill="green" r="3"/>
<circle cx="386.0741818011209" cy="253.42391651194757" fill="red" r="3"/>
<circle cx="93.25366021624872" cy="27.093741773199014" fill="red" r="3"/>
<circle cx="79.42589425263004" cy="16.198874590182992" fill="red" r="3"/>
<circle cx="108.36189907751395" cy="356.45342262746277" fill="green" r="3"/>
<circle cx="188.7469257912098" cy="265.2420316453136" fill="green" r="3"/>
<circle cx="343.6275290169294" cy="470.7770233986913" fill="red" r="3"/>
<circle cx="205.56028381025476" cy="49.73553712197943" fill="red" r="3"/>
<circle cx="140.70837126425133" cy="126.25645214312789" fill="green" r="3"/>
<circle cx="39.51214489309541" cy="112.86436797283841" fill="green" r="3"/>
<circle cx="461.56602878695776" cy="260.8855585915221" fill="red" r="3"/>
<circle cx="490.0913874177946" cy="121.14497732691224" fill="red" r="3"/>
<circle cx="389.41792567147036" cy="215.51504042124753" fill="red" r="3"/>
<circle cx="67.64394807714315" cy="148.98167839177026" fill="green" r="3"/>
<circle cx="303.2914692244154" cy="3.566405010976604" fill="red" r="3"/>
<circle cx="184.1033797567965" cy="296.798544133124" fill="green" r="3"/>
<circle cx="74.91683800370521" cy="59.08611999077186" fill="red" r="3"/>
<circle cx="135.13138386144976" cy="71.22969337320097" fill="red" r="3"/>
<circle cx="440.5020795628891" cy="269.3340901388985" fill="red" r="3"/>
<circle cx="145.19391028005637" cy="203.63254616368158" fill="green" r="3"/>
<circle cx="388.9894678747114" cy="359.89209350258" fill="red" r="3"/>
<circle cx="397.8146185019402" cy="117.25925122060323" fill="red" r="3"/>
<circle cx="332.85257165534415" cy="47.77105055268639" fill="red" r="3"/>
<circle cx="214.40961970128419" cy="243.07492183705776" fill="red" r="3"/>
<circle cx="14.605285236048541" cy="357.1833353791408" fill="green" r="3"/>
<circle cx="154.8514769554709" cy="227.22778234252456" fill="green" r="3"/>
<circle cx="381.7521344460327" cy="362.9338160366774" fill="red" r="3"/>
<circle cx="301.10923695425447" cy="337.978929447983" fill="red" r="3"/>
<circle cx="88.61651651493354" cy="201.66124397546898" fill="green" r="3"/>
<circle cx="62.41527536319604" cy="115.02696412502259" fill="green" r="3"/>
<circle cx="338.1943806769438" cy="292.5665211718376" fill="red" r="3"/>
<circle cx="16.169790996641733" cy="113.39923599260528" fill="green" r="3"/>
<circle cx="322.5756134134826" cy="155.58889653713607" fill="red" r="3"/>
<circle cx="163.68067457793515" cy="327.8594222975685" fill="green" r="3"/>
<circle cx="373.7321376652237" cy="386.1592165962507" fill="red" r="3"/>
<circle cx="44.145934641201656" cy="488.63242832900687" fill="red" r="3"/>
<circle cx="65.90456850859262" cy="164.25260709322168" fill="green" r="3"/>
<circle cx="217.72014695438418" cy="254.88953764185112" fill="red" r="3"/>
<circle cx="66.27213806505263" cy="223.65566815247288" fill="green" r="3"/>
<circle cx="497.7147745704654" cy="106.2365037127875" fill="red" r="3"/>
<circle cx="352.36646115817325" cy="493.3639895737587" fill="red" r="3"/>
<circle cx="189.72177522655636" cy="306.67156101170343" fill="green" r="3"/>
<circle cx="314.2168720327175" cy="311.51667490305863" fill="red" r="3"/>
<circle cx="411.3167945425039" cy="450.9054953044009" fill="red" r="3"/>
<circle cx="296.45107212061237" cy="377.3074520527777" fill="red" r="3"/>
<circle cx="159.19421925505952" cy="379.5943333601832" fill="red" r="3"/>
<circle cx="160.36794706889705" cy="213.16126728974078" fill="green" r="3"/>
<circle cx="102.83359445934627" cy="164.9462408737327" fill="green" r="3"/>
<circle cx="67.61620046514196" cy="107.57518554381231" fill="green" r="3"/>
<circle cx="265.357114693811" cy="118.92092175012228" fill="red" r="3"/>
<circle cx="405.6268332706473" cy="15.733640321472402" fill="red" r="3"/>
<circle cx="389.6064238386585" cy="404.10447992094254" fill="red" r="3"/>
<circle cx="20.591170059591107" cy="285.96599953541363" fill="green" r="3"/>
<circle cx="205.73181789415844" cy="397.18558199576125" fill="red" r="3"/>
<circle cx="166.77901373463814" cy="435.70290411505187" fill="red" r="3"/>
<circle cx="53.643691528439966" cy="227.74323822051085" fill="green" r="3"/>
<circle cx="290.471664859345" cy="406.39948689687395" fill="red" r="3"/>
<circle cx="57.644876301205194" cy="152.59894398653975" fill="green" r="3"/>
<circle cx="234.4730346686295" cy="493.86988539483133" fill="red" r="3"/>
</svg>