<svg width="500" height="500" xmlns="http://www.w3.org/2000/svg">
<rect width="100%" height="100%" fill="#EEEEEE" />
<circle cx="250" cy="250" r="250" stroke="black" stroke-width="2" fill="none" />
<circle cx="64" cy="188" r="10" fill="#1927aa" />
<circle cx="224" cy="92" r="10" fill="#1927aa" />
<circle cx="45" cy="489" r="10" fill="#1927aa" />
<circle cx="267" cy="494" r="10" fill="#1927aa" />
<circle cx="409" cy="499" r="10" fill="#1927aa" />
<circle cx="14" cy="156" r="10" fill="#1927aa" />
<circle cx="99" cy="394" r="10" fill="#1927aa" />
<circle cx="188" cy="33" r="10" fill="#1927aa" />
<circle cx="387" cy="17" r="10" fill="#1927aa" />
<circle cx="83" cy="57" r="10" fill="#1927aa" />
<circle cx="157" cy="91" r="10" fill="#1927aa" />
<circle cx="294" cy="52" r="10" fill="#1927aa" />
<circle cx="491" cy="131" r="10" fill="#1927aa" />
<circle cx="297" cy="62" r="10" fill="#1927aa" />
<circle cx="177" cy="164" r="10" fill="#1927aa" />
<circle cx="207" cy="193" r="10" fill="#1927aa" />
<circle cx="216" cy="290" r="10" fill="#1927aa" />
<circle cx="83" cy="309" r="10" fill="#1927aa" />
<circle cx="20" cy="251" r="10" fill="#1927aa" />
<circle cx="245" cy="458" r="10" fill="#1927aa" />
<circle cx="172" cy="375" r="10" fill="#1927aa" />
<circle cx="412" cy="317" r="10" fill="#1927aa" />
<circle cx="34" cy="459" r="10" fill="#1927aa" />
<circle cx="269" cy="69" r="10" fill="#1927aa" />
<circle cx="169" cy="122" r="10" fill="#1927aa" />
<circle cx="300" cy="399" r="10" fill="#1927aa" />
<circle cx="86" cy="339" r="10" fill="#1927aa" />
<circle cx="324" cy="335" r="10" fill="#1927aa" />
<circle cx="315" cy="356" r="10" fill="#1927aa" />
<circle cx="135" cy="1" r="10" fill="#1927aa" />
<circle cx="57" cy="368" r="10" fill="#1927aa" />
<circle cx="159" cy="433" r="10" fill="#1927aa" />
<circle cx="150" cy="151" r="10" fill="#1927aa" />
</svg>